<svg xmlns="http://www.w3.org/2000/svg" version="1.1" xmlns:xlink="http://www.w3.org/1999/xlink" xmlns:svgjs="http://svgjs.dev/svgjs" width="765" height="625" viewBox="0 0 312.5640197753906 314.4" class="svg-animations " style="background-color: rgb(255, 253, 0);"><svg viewBox="0 0 136 141" width="200" height="200" x="56.282009887695295" y="26.19999999999999" style="fill: rgb(0, 0, 0);"><svg width="136" height="136" viewBox="0 0 136 136" xmlns="http://www.w3.org/2000/svg">
	<path d="M134.06 0H1.94045C0.866736 0 0 0.866654 0 1.94027V134.047C0 135.12 0.866736 135.987 1.94045 135.987H78.7695V136H108.976V135.987H134.06C135.133 135.987 136 135.12 136 134.047V1.94027C136 0.866654 135.133 0 134.06 0ZM92.0681 76.2914L78.7695 67.9095V131.693H69.6235V25.12L92.0681 50.8221V76.2914ZM105.095 132.107H95.949V83.3281L105.095 89.0972V132.107ZM92.0681 131.693H82.6504V74.9462L92.0681 80.8834V131.693ZM65.3674 131.796H56.3767V67.1592L42.9229 75.7093V66.7453L65.3674 45.868V131.796ZM52.4958 74.2218V131.809H42.9229V80.3013L52.4958 74.2218ZM39.029 131.796H30.0382V88.4763L39.029 82.7719V131.796ZM132.119 132.107H108.976V86.9629L95.949 78.7491V49.3734L65.7426 14.7849V40.2024L39.0419 65.0378V78.167L26.1703 86.342V132.107H3.88091V3.88054H132.119V132.107Z"/>
	</svg></svg><svg x="26.0470016479492" y="226.2" style="fill: rgb(0, 0, 0);"><path d="M10.10 47.70L10.10 47.70Q7.67 47.70 6.75 46.62Q5.83 45.54 5.83 43.86L5.83 43.86Q5.83 42.30 6.48 40.14Q7.13 37.98 7.83 35.98L7.83 35.98Q8.75 33.33 10.04 29.77Q11.34 26.21 12.82 22.32Q14.31 18.43 15.85 14.65Q17.39 10.87 18.85 7.79L18.85 7.79Q15.12 7.85 12.61 7.95Q10.10 8.06 8.10 8.25Q6.10 8.44 3.73 8.87L3.73 8.87Q3.89 7.04 5.62 6.01Q7.34 4.98 10.26 4.55Q13.18 4.12 16.90 4.12L16.90 4.12Q20.63 4.12 23.57 4.42Q26.51 4.71 29.11 4.98Q31.70 5.25 34.29 5.31L34.29 5.31Q32.45 6.98 30.08 7.41Q27.70 7.85 25.06 7.85L25.06 7.85Q24.14 7.85 23.17 7.82Q22.19 7.79 21.22 7.79L21.22 7.79Q19.49 12.11 17.25 18.70Q15.01 25.29 12.74 33.55L12.74 33.55Q11.56 37.82 10.80 40.81Q10.04 43.81 10.04 46.51L10.04 46.51Q10.04 46.78 10.04 47.10Q10.04 47.43 10.10 47.70ZM25.54 44.73L25.54 44.73Q23.22 44.73 22.25 43.30Q21.28 41.87 21.28 39.81L21.28 39.81Q21.28 38.14 21.82 36.36Q22.36 34.58 23.25 33.01Q24.14 31.44 25.25 30.47Q26.35 29.50 27.49 29.50L27.49 29.50Q27.97 29.50 28.62 29.77L28.62 29.77Q28.13 30.20 27.46 31.36Q26.78 32.52 26.19 34.01Q25.60 35.49 25.19 36.95Q24.79 38.41 24.79 39.44L24.79 39.44Q24.79 41.06 25.33 41.78Q25.87 42.51 26.73 42.51L26.73 42.51Q27.86 42.51 29.43 41.30Q31.00 40.08 32.51 38.19L32.51 38.19Q31.00 36.95 30.16 34.93Q29.32 32.90 29.32 30.80L29.32 30.80Q29.32 29.01 29.94 27.45Q30.56 25.88 31.75 24.94Q32.94 23.99 34.61 23.99L34.61 23.99Q36.83 23.99 37.58 25.18Q38.34 26.37 38.34 28.15L38.34 28.15Q38.34 30.26 37.31 32.82Q36.29 35.39 34.72 37.76L34.72 37.76Q35.69 38.30 36.77 38.30L36.77 38.30Q38.02 38.30 39.80 37.47Q41.58 36.63 42.55 34.41L42.55 34.41L43.20 34.95Q42.12 37.49 40.15 38.55Q38.18 39.60 36.40 39.60L36.40 39.60Q34.94 39.60 33.80 39.06L33.80 39.06Q31.97 41.49 29.78 43.11Q27.59 44.73 25.54 44.73ZM33.48 36.79L33.48 36.79Q34.83 34.79 35.72 32.61Q36.61 30.42 36.61 28.47L36.61 28.47Q36.61 26.91 36.15 26.18Q35.69 25.45 34.99 25.45L34.99 25.45Q33.91 25.45 32.78 27.02Q31.64 28.58 31.64 30.96L31.64 30.96Q31.64 32.52 32.10 34.12Q32.56 35.71 33.48 36.79ZM46.12 45.48L46.12 45.48Q41.31 45.48 41.31 40.14L41.31 40.14Q41.31 37.76 42.20 34.28Q43.09 30.80 44.44 27.12L44.44 27.12Q43.90 27.02 43.42 26.93Q42.93 26.85 42.50 26.69L42.50 26.69L42.50 25.72Q42.93 25.77 43.52 25.83Q44.12 25.88 44.87 25.94L44.87 25.94Q46.01 23.02 47.30 20.29Q48.60 17.57 49.87 15.43Q51.14 13.30 52.30 12.03Q53.46 10.76 54.27 10.76L54.27 10.76Q54.70 10.76 55.05 11.06Q55.40 11.36 55.40 11.95L55.40 11.95Q55.40 12.87 54.27 14.95Q53.14 17.03 51.46 19.89Q49.79 22.75 48.22 26.10L48.22 26.10L50.22 26.10Q52.00 26.10 53.97 26.04Q55.94 25.99 57.94 25.77L57.94 25.77L57.94 26.75Q52.06 27.39 48.44 27.39L48.44 27.39L47.63 27.39Q46.39 30.26 45.52 33.28Q44.66 36.30 44.66 39.17L44.66 39.17Q44.66 41.49 45.36 42.49Q46.06 43.49 47.68 43.49L47.68 43.49Q50.49 43.49 53.19 41.00Q55.89 38.52 57.94 34.25L57.94 34.25L58.64 34.79Q57.35 37.82 55.38 40.25Q53.41 42.68 51.03 44.08Q48.65 45.48 46.12 45.48ZM59.51 45.54L59.51 45.54Q57.83 45.54 56.67 44.43Q55.51 43.32 55.51 41.06L55.51 41.06Q55.51 39.11 56.38 36.87Q57.24 34.63 58.75 32.44Q60.26 30.26 62.18 28.45Q64.10 26.64 66.23 25.56Q68.36 24.48 70.47 24.48L70.47 24.48Q72.58 24.48 73.98 25.59Q75.38 26.69 75.38 28.53L75.38 28.53Q75.38 29.88 74.66 30.36Q73.93 30.85 72.74 30.85L72.74 30.85Q73.01 29.88 73.01 28.96L73.01 28.96Q73.01 27.72 72.41 26.83Q71.82 25.94 70.36 25.94L70.36 25.94Q68.85 25.94 67.28 26.99Q65.72 28.04 64.26 29.80Q62.80 31.55 61.67 33.60Q60.53 35.66 59.89 37.65Q59.24 39.65 59.24 41.22L59.24 41.22Q59.24 43.32 60.70 43.32L60.70 43.32Q61.94 43.32 63.40 42.16Q64.85 41.00 66.39 39.19Q67.93 37.38 69.34 35.44Q70.74 33.50 71.82 31.88L71.82 31.88Q72.04 31.55 72.09 31.55L72.09 31.55Q72.58 31.61 73.39 31.96Q74.20 32.31 74.20 32.90L74.20 32.90Q74.20 33.39 73.71 34.23Q73.22 35.06 72.63 36.14Q72.04 37.22 71.55 38.33Q71.06 39.44 71.06 40.41L71.06 40.41Q71.06 41.22 71.50 42.00Q71.93 42.78 72.90 42.78L72.90 42.78Q74.36 42.78 76.73 40.65Q79.11 38.52 81.54 34.25L81.54 34.25L82.08 34.79Q80.95 37.71 79.16 39.92Q77.38 42.14 75.36 43.38Q73.33 44.62 71.39 44.62L71.39 44.62Q69.39 44.62 68.45 43.43Q67.50 42.24 67.50 40.84L67.50 40.84Q67.50 40.14 67.66 39.27L67.66 39.27Q65.34 42.41 63.42 43.97Q61.51 45.54 59.51 45.54ZM84.94 44.62L84.94 44.62Q82.62 44.62 81.62 43.03Q80.62 41.43 80.62 39.06L80.62 39.06Q80.62 36.47 81.59 32.90Q82.57 29.34 84.16 25.40Q85.75 21.45 87.64 17.70Q89.53 13.95 91.42 10.87Q93.31 7.79 94.91 5.96Q96.50 4.12 97.42 4.12L97.42 4.12Q98.01 4.12 98.39 4.80Q98.77 5.47 98.98 6.41Q99.20 7.36 99.20 8.12L99.20 8.12Q99.20 9.57 98.47 11.92Q97.74 14.27 96.42 17.16Q95.09 20.05 93.29 22.99Q91.48 25.94 89.34 28.64Q87.21 31.34 84.83 33.28L84.83 33.28Q84.51 34.74 84.32 36.12Q84.13 37.49 84.13 38.73L84.13 38.73Q84.13 42.89 86.51 42.89L86.51 42.89Q87.97 42.89 89.40 41.60Q90.83 40.30 92.10 38.33Q93.37 36.36 94.28 34.25L94.28 34.25L95.09 34.68Q92.93 39.27 90.40 41.95Q87.86 44.62 84.94 44.62ZM85.32 31.44L85.32 31.44Q87.21 29.55 88.99 27.10Q90.77 24.64 92.31 21.99Q93.85 19.35 95.04 16.86Q96.23 14.38 96.88 12.41Q97.52 10.44 97.52 9.36L97.52 9.36Q97.52 8.82 97.39 8.66Q97.25 8.49 97.15 8.49L97.15 8.49Q96.71 8.49 95.66 9.87Q94.61 11.25 93.20 13.57Q91.80 15.89 90.34 18.86Q88.88 21.83 87.56 25.07Q86.24 28.31 85.32 31.44ZM103.57 19.67L103.57 19.67Q102.71 19.67 102.03 19.24Q101.36 18.81 101.36 17.89L101.36 17.89Q101.36 16.76 102.68 15.92Q104.00 15.08 105.30 15.08L105.30 15.08Q106.11 15.08 106.60 15.46Q107.08 15.84 107.08 16.76L107.08 16.76Q107.08 17.78 105.98 18.73Q104.87 19.67 103.57 19.67ZM97.09 44.40L97.09 44.40Q94.99 44.40 93.96 43.08Q92.93 41.76 92.93 39.87L92.93 39.87Q92.93 38.63 93.39 36.74Q93.85 34.85 94.61 32.77Q95.36 30.69 96.36 28.85Q97.36 27.02 98.50 25.86Q99.63 24.69 100.71 24.69L100.71 24.69Q101.20 24.69 101.55 24.99Q101.90 25.29 101.90 25.88L101.90 25.88Q101.90 26.53 101.06 27.99Q100.22 29.45 99.09 31.34Q97.96 33.23 97.12 35.30Q96.28 37.38 96.28 39.27L96.28 39.27Q96.28 41.22 96.93 41.87Q97.58 42.51 98.93 42.51L98.93 42.51Q100.76 42.51 102.84 40.68Q104.92 38.84 107.24 34.25L107.24 34.25L107.73 34.79Q106.16 39.44 103.22 41.92Q100.28 44.40 97.09 44.40ZM110.81 45.48L110.81 45.48Q106.00 45.48 106.00 40.14L106.00 40.14Q106.00 37.76 106.89 34.28Q107.78 30.80 109.13 27.12L109.13 27.12Q108.59 27.02 108.11 26.93Q107.62 26.85 107.19 26.69L107.19 26.69L107.19 25.72Q107.62 25.77 108.22 25.83Q108.81 25.88 109.57 25.94L109.57 25.94Q110.70 23.02 112.00 20.29Q113.29 17.57 114.56 15.43Q115.83 13.30 116.99 12.03Q118.15 10.76 118.96 10.76L118.96 10.76Q119.39 10.76 119.75 11.06Q120.10 11.36 120.10 11.95L120.10 11.95Q120.10 12.87 118.96 14.95Q117.83 17.03 116.15 19.89Q114.48 22.75 112.91 26.10L112.91 26.10L114.91 26.10Q116.69 26.10 118.67 26.04Q120.64 25.99 122.63 25.77L122.63 25.77L122.63 26.75Q116.75 27.39 113.13 27.39L113.13 27.39L112.32 27.39Q111.08 30.26 110.21 33.28Q109.35 36.30 109.35 39.17L109.35 39.17Q109.35 41.49 110.05 42.49Q110.75 43.49 112.37 43.49L112.37 43.49Q115.18 43.49 117.88 41.00Q120.58 38.52 122.63 34.25L122.63 34.25L123.34 34.79Q122.04 37.82 120.07 40.25Q118.10 42.68 115.72 44.08Q113.35 45.48 110.81 45.48ZM123.93 58.12L123.93 58.12Q122.58 58.12 121.55 57.39Q120.53 56.66 120.53 55.26L120.53 55.26Q120.53 52.94 122.01 51.26Q123.50 49.59 125.90 48.21Q128.30 46.83 131.00 45.48L131.00 45.48Q131.76 43.49 132.54 41.03Q133.33 38.57 134.03 35.60L134.03 35.60Q132.30 38.41 130.33 40.44Q128.36 42.46 126.14 42.46L126.14 42.46Q124.58 42.46 123.20 41.41Q121.82 40.35 121.82 38.09L121.82 38.09Q121.82 36.57 122.34 34.58Q122.85 32.58 123.61 30.69Q124.36 28.80 125.17 27.56Q125.98 26.31 126.58 26.31L126.58 26.31Q126.79 26.31 127.36 26.48Q127.93 26.64 128.44 26.93Q128.95 27.23 128.95 27.56L128.95 27.56Q128.47 28.26 127.87 29.55Q127.28 30.85 126.71 32.44Q126.14 34.04 125.77 35.55Q125.39 37.06 125.39 38.14L125.39 38.14Q125.39 39.11 125.82 39.71Q126.25 40.30 127.33 40.30L127.33 40.30Q128.36 40.30 129.63 39.30Q130.90 38.30 132.16 36.74Q133.43 35.17 134.51 33.39L134.51 33.39Q134.68 32.79 134.81 32.17Q134.95 31.55 135.05 30.90L135.05 30.90Q135.22 30.15 135.84 29.15Q136.46 28.15 137.81 28.15L137.81 28.15Q138.29 28.15 138.94 28.31L138.94 28.31Q138.94 29.18 138.43 31.52Q137.92 33.87 136.97 37.01Q136.03 40.14 134.73 43.43L134.73 43.43Q137.27 42.46 139.70 40.22Q142.13 37.98 143.64 34.25L143.64 34.25L144.34 34.79Q143.53 37.38 141.88 39.30Q140.24 41.22 138.19 42.59Q136.13 43.97 134.14 44.89L134.14 44.89Q132.73 48.35 131.09 51.37Q129.44 54.39 127.63 56.26Q125.82 58.12 123.93 58.12ZM123.66 56.39L123.66 56.39Q124.47 56.39 126.39 54.26Q128.30 52.13 130.46 46.78L130.46 46.78Q128.25 47.97 126.36 49.13Q124.47 50.29 123.34 51.64Q122.20 52.99 122.20 54.77L122.20 54.77Q122.20 55.20 122.53 55.80Q122.85 56.39 123.66 56.39ZM167.62 47.70L167.62 47.70Q164.70 47.70 162.11 46.65Q159.52 45.59 157.92 43.43Q156.33 41.27 156.33 38.03L156.33 38.03Q156.33 35.22 157.44 33.66Q158.54 32.09 160.16 31.44Q161.78 30.80 163.24 30.80L163.24 30.80Q161.78 32.36 161.03 34.25Q160.27 36.14 160.27 38.03L160.27 38.03Q160.27 40.03 161.16 41.76Q162.05 43.49 163.89 44.54Q165.73 45.59 168.53 45.59L168.53 45.59Q170.96 45.59 173.29 44.70Q175.61 43.81 177.09 42.05Q178.58 40.30 178.58 37.71L178.58 37.71Q178.58 35.39 177.39 33.71Q176.20 32.04 174.34 30.74Q172.48 29.45 170.37 28.26Q168.26 27.07 166.40 25.75Q164.54 24.42 163.35 22.70Q162.16 20.97 162.16 18.54L162.16 18.54Q162.16 16.27 163.24 13.79Q164.32 11.30 166.35 9.09Q168.37 6.87 171.21 5.50Q174.04 4.12 177.55 4.12L177.55 4.12Q180.74 4.12 181.98 5.66Q183.22 7.20 183.22 9.52L183.22 9.52Q183.22 11.46 182.55 13.71Q181.87 15.95 180.90 17.97Q179.93 20.00 179.06 21.40L179.06 21.40Q178.09 21.18 177.69 20.56Q177.28 19.94 177.28 19.08L177.28 19.08Q177.28 17.94 177.77 16.49Q178.25 15.03 178.88 13.46Q179.50 11.90 179.98 10.41Q180.47 8.93 180.47 7.74L180.47 7.74Q180.47 6.66 179.82 6.04Q179.17 5.42 177.44 5.42L177.44 5.42Q174.91 5.42 172.75 6.60Q170.59 7.79 168.97 9.66Q167.35 11.52 166.45 13.57Q165.56 15.62 165.56 17.30L165.56 17.30Q165.56 19.29 166.72 20.73Q167.89 22.16 169.72 23.32Q171.56 24.48 173.64 25.64Q175.72 26.80 177.55 28.20Q179.39 29.61 180.55 31.52Q181.71 33.44 181.71 36.20L181.71 36.20Q181.71 39.00 180.47 41.14Q179.23 43.27 177.15 44.73Q175.07 46.19 172.58 46.94Q170.10 47.70 167.62 47.70ZM190.19 45.48L190.19 45.48Q185.38 45.48 185.38 40.14L185.38 40.14Q185.38 37.76 186.27 34.28Q187.16 30.80 188.51 27.12L188.51 27.12Q187.97 27.02 187.49 26.93Q187.00 26.85 186.57 26.69L186.57 26.69L186.57 25.72Q187.00 25.77 187.60 25.83Q188.19 25.88 188.95 25.94L188.95 25.94Q190.08 23.02 191.38 20.29Q192.67 17.57 193.94 15.43Q195.21 13.30 196.37 12.03Q197.53 10.76 198.34 10.76L198.34 10.76Q198.77 10.76 199.12 11.06Q199.48 11.36 199.48 11.95L199.48 11.95Q199.48 12.87 198.34 14.95Q197.21 17.03 195.53 19.89Q193.86 22.75 192.29 26.10L192.29 26.10L194.29 26.10Q196.07 26.10 198.04 26.04Q200.02 25.99 202.01 25.77L202.01 25.77L202.01 26.75Q196.13 27.39 192.51 27.39L192.51 27.39L191.70 27.39Q190.46 30.26 189.59 33.28Q188.73 36.30 188.73 39.17L188.73 39.17Q188.73 41.49 189.43 42.49Q190.13 43.49 191.75 43.49L191.75 43.49Q194.56 43.49 197.26 41.00Q199.96 38.52 202.01 34.25L202.01 34.25L202.72 34.79Q201.42 37.82 199.45 40.25Q197.48 42.68 195.10 44.08Q192.73 45.48 190.19 45.48ZM204.71 44.73L204.71 44.73Q202.39 44.73 201.42 43.30Q200.45 41.87 200.45 39.81L200.45 39.81Q200.45 38.14 200.99 36.36Q201.53 34.58 202.42 33.01Q203.31 31.44 204.42 30.47Q205.52 29.50 206.66 29.50L206.66 29.50Q207.14 29.50 207.79 29.77L207.79 29.77Q207.31 30.20 206.63 31.36Q205.96 32.52 205.36 34.01Q204.77 35.49 204.36 36.95Q203.96 38.41 203.96 39.44L203.96 39.44Q203.96 41.06 204.50 41.78Q205.04 42.51 205.90 42.51L205.90 42.51Q207.04 42.51 208.60 41.30Q210.17 40.08 211.68 38.19L211.68 38.19Q210.17 36.95 209.33 34.93Q208.49 32.90 208.49 30.80L208.49 30.80Q208.49 29.01 209.12 27.45Q209.74 25.88 210.92 24.94Q212.11 23.99 213.79 23.99L213.79 23.99Q216 23.99 216.76 25.18Q217.51 26.37 217.51 28.15L217.51 28.15Q217.51 30.26 216.49 32.82Q215.46 35.39 213.89 37.76L213.89 37.76Q214.87 38.30 215.95 38.30L215.95 38.30Q217.19 38.30 218.97 37.47Q220.75 36.63 221.72 34.41L221.72 34.41L222.37 34.95Q221.29 37.49 219.32 38.55Q217.35 39.60 215.57 39.60L215.57 39.60Q214.11 39.60 212.98 39.06L212.98 39.06Q211.14 41.49 208.95 43.11Q206.77 44.73 204.71 44.73ZM212.65 36.79L212.65 36.79Q214.00 34.79 214.89 32.61Q215.78 30.42 215.78 28.47L215.78 28.47Q215.78 26.91 215.32 26.18Q214.87 25.45 214.16 25.45L214.16 25.45Q213.08 25.45 211.95 27.02Q210.82 28.58 210.82 30.96L210.82 30.96Q210.82 32.52 211.28 34.12Q211.73 35.71 212.65 36.79ZM230.04 44.40L230.04 44.40Q228.20 44.40 227.15 43.43Q226.10 42.46 226.10 40.89L226.10 40.89Q226.10 39.27 226.85 37.49Q227.61 35.71 228.34 33.95Q229.07 32.20 229.07 30.80L229.07 30.80Q229.07 29.07 228.07 28.23Q227.07 27.39 226.04 26.69L226.04 26.69Q224.80 29.88 223.45 32.74Q222.10 35.60 221.24 37.06L221.24 37.06L220.75 36.14Q221.51 34.74 222.72 32.04Q223.94 29.34 225.13 25.88L225.13 25.88Q224.59 25.34 224.59 24.59L224.59 24.59Q224.59 22.97 225.50 21.94Q226.42 20.91 226.85 20.91L226.85 20.91Q227.45 20.91 227.53 21.43Q227.61 21.94 227.61 22.21L227.61 22.21Q227.61 22.48 227.31 23.26Q227.02 24.05 227.02 24.21L227.02 24.21Q227.02 24.96 227.85 25.59Q228.69 26.21 229.77 26.99Q230.85 27.77 231.69 28.88Q232.52 29.99 232.52 31.71L232.52 31.71Q232.52 33.33 231.85 35.01Q231.17 36.68 230.50 38.19Q229.82 39.71 229.82 40.84L229.82 40.84Q229.82 41.81 230.31 42.14Q230.80 42.46 231.44 42.46L231.44 42.46Q232.74 42.46 234.12 41.65Q235.49 40.84 236.79 39.60Q238.09 38.36 239.11 36.98Q240.14 35.60 240.62 34.41L240.62 34.41L241.33 34.95Q240.30 37.22 238.52 39.41Q236.74 41.60 234.55 43Q232.36 44.40 230.04 44.40ZM245.32 45.38L245.32 45.38Q242.03 45.38 240.38 43.57Q238.73 41.76 238.73 39.11L238.73 39.11Q238.73 36.68 239.95 33.98Q241.16 31.28 243.19 28.91Q245.21 26.53 247.64 25.05Q250.07 23.56 252.45 23.56L252.45 23.56Q253.69 23.56 254.75 24.21Q255.80 24.86 255.80 26.85L255.80 26.85Q255.80 28.91 254.58 30.71Q253.37 32.52 251.40 33.93Q249.43 35.33 247.08 36.22Q244.73 37.11 242.41 37.33L242.41 37.33Q242.30 37.87 242.24 38.36Q242.19 38.84 242.19 39.27L242.19 39.27Q242.19 40.95 243.08 42.38Q243.97 43.81 246.46 43.81L246.46 43.81Q248.78 43.81 251.05 42.49Q253.31 41.16 255.26 39.00Q257.20 36.84 258.55 34.25L258.55 34.25L259.20 34.74Q257.74 37.98 255.50 40.35Q253.26 42.73 250.64 44.05Q248.02 45.38 245.32 45.38ZM242.68 36.30L242.68 36.30Q244.13 35.82 245.97 34.87Q247.81 33.93 249.51 32.63Q251.21 31.34 252.31 29.77Q253.42 28.20 253.42 26.48L253.42 26.48Q253.42 25.88 253.21 25.56Q252.99 25.23 252.29 25.23L252.29 25.23Q250.99 25.23 249.53 26.23Q248.08 27.23 246.73 28.85Q245.38 30.47 244.30 32.42Q243.22 34.36 242.68 36.30Z"/></svg><text fill="#ffffff" font-family="Times New Roman" font-size="16px" x="156.2820098876953" y="288.2"><tspan dy="0" x="156.2820098876953"></tspan></text></svg>